<svg id="图层_1" data-name="图层 1" xmlns="http://www.w3.org/2000/svg" viewBox="0 0 773.47 307.43"><defs><style>.cls-1{fill:#2957a4;}</style></defs><title>画板 1</title><g id="_π_1" data-name=" ═╝▓π_1"><path class="cls-1" d="M773.21,137.62c0,4.25-5.54,6-10.22,6H759.6c-3,0-10.22-.94-13.75.28-5,1.8-3.24,6.77-3.24,11.6v1.29c0,3.75-2.88,15.12-4.1,18-2.16,5-6,9.65-11.59,9.65-4.61,0-5.69-3.6-7.13-6.84-1.22-2.66-5.83-5.4-6-8l.07-.51,12.24,2.67c7.35-6.34,7.27-8.43,7.35-20.45L732,150.08v-.29l.43-1.15-1.66-1.37c-3.74.36-27.57,8.78-29.73,10.22-10.66,0-6.7.72-14.33-3.38l-.5-2.09c1.58-2.38,7.27-2.74,10.8-4.1s7.41-3.1,10.58-4.25c3.82-1.44,7.49-2.95,10.87-4,3.53-1.15,8.78-1.44,10.66-4.25-1.37-2.59-4.25-4-4.25-6.77v-.86c0-4.75,6.77-7.49,6.77-10.59,0-.28-.58-.93-.87-1.36l-7.2.5h-3.38c-2.95,0-3.31-1.94-4.25-3.82,3.46-6.4,8.71-3.52,13.61-6.76,4.1,0,5.47-1.16,9.5.72,2.16.93,5.4,4.17,5.4,6.91v1.29c0,4.18-1.44,5.62-3.38,7.71-.94.93-2.38,2-2.88,2.66-1.08,1.3-.79,2.74-1.44,4.11,1.58,1.87,3.45,4.68,6.77,4.68C751,133.81,773.21,127.9,773.21,137.62Z"/><path class="cls-1" d="M752.4,81.68c8.72,0,18.51,3,15.12,12.6-1.29,3.74-4.32,5-8.56,5.83s-6.7,2.38-11.67,2.38c-4.32,0,8.07-7.92,8.07-11,0-1.51-1.88-1.73-3.39-1.73h-.86c-10.15,0-22.32,7.35-30.31,10.44a77.15,77.15,0,0,0-13.47,6.91c-3.67,2.45-7.27,6.92-13.1,6.92h-3a4.67,4.67,0,0,1-3.82-2.09c2.74-5.26,21.24-14.91,27.72-18.15a149.25,149.25,0,0,1,16.49-6.48c2.73-.93,6-2,8.49-3,.94-.36,8.79-2.66,8.86-2.66l3,.07Z"/><path class="cls-1" d="M767.6,226,758,251.74a62.23,62.23,0,0,1-2.38,5.76,8.75,8.75,0,0,1-2.59,3.09,6.34,6.34,0,0,1-3.53,1,7.85,7.85,0,0,1-2.73-.5h-.08l-.5-4a11.6,11.6,0,0,0,2.45.36,4.36,4.36,0,0,0,2.3-.51,4.25,4.25,0,0,0,1.44-1.37,18.43,18.43,0,0,0,1.3-3.16c.07-.22.21-.58.36-1.08L744.41,226H749l5.26,14.69c.64,1.87,1.29,3.82,1.8,5.83a52.62,52.62,0,0,1,1.8-5.76l5.4-14.76Z"/><path class="cls-1" d="M747.44,59c.07,5.83-5.69,9.36-5.91,11.81-.86.14-12.31,9.21-14.47,10.58-2.38,1.58-13.61,8.06-16.56,8.06a1.06,1.06,0,0,1-.86-.86c0-2.16,6-6.62,6-8.06v-.87c0-3.45-7.63-.21-7.63-7.63v-.86c0-7,1.37-14.83,8.07-14.19,8.56.8,4,8.43,7.19,14.62l.08.07c2.8-1.51,7-7.13,8.64-10.08,1.29-2.37,4.39-11.16,7-11.16C744.12,50.43,747.36,55.11,747.44,59Z"/><path class="cls-1" d="M740,247.49l.65,3.82a14.41,14.41,0,0,1-3.24.36,7.1,7.1,0,0,1-3.6-.72A4.26,4.26,0,0,1,732,249a15.18,15.18,0,0,1-.51-5V229.42h-3.17v-3.31h3.17v-6.27l4.25-2.59v8.86H740v3.31H735.7v14.83a7.8,7.8,0,0,0,.22,2.38,2.08,2.08,0,0,0,.72.86,2.8,2.8,0,0,0,1.44.29c.5,0,1.08-.07,1.87-.15Z"/><rect class="cls-1" x="717.05" y="225.96" width="4.32" height="25.35"/><rect class="cls-1" x="717.05" y="216.31" width="4.32" height="4.97"/><path class="cls-1" d="M708.13,240.29a6.72,6.72,0,0,1,1,3.67,7.36,7.36,0,0,1-1.22,4,8.16,8.16,0,0,1-3.6,3,12.77,12.77,0,0,1-5.33,1c-3.31,0-5.83-.72-7.56-2a9.62,9.62,0,0,1-3.31-6.05l.07-.14,4.25-.65a5.72,5.72,0,0,0,2,3.89,8.36,8.36,0,0,0,8.92.14,3.61,3.61,0,0,0,1.44-2.81,2.58,2.58,0,0,0-1.29-2.3,18.3,18.3,0,0,0-4.39-1.44,39,39,0,0,1-6.56-2.09,6,6,0,0,1-2.73-2.38,6.12,6.12,0,0,1-.94-3.38,7,7,0,0,1,.79-3.17,6.74,6.74,0,0,1,2.09-2.37,7.43,7.43,0,0,1,2.74-1.23,12.35,12.35,0,0,1,3.74-.5,14.76,14.76,0,0,1,5.26.86,7.36,7.36,0,0,1,3.31,2.31,8.6,8.6,0,0,1,1.44,3.88l-4.18.58a4.5,4.5,0,0,0-1.65-3,6.25,6.25,0,0,0-3.89-1.08,7.32,7.32,0,0,0-4.25,1A2.87,2.87,0,0,0,693,232.3a2.7,2.7,0,0,0,.5,1.51,3.75,3.75,0,0,0,1.66,1.15c.43.15,1.65.51,3.81,1.08a38.16,38.16,0,0,1,6.34,2A6.26,6.26,0,0,1,708.13,240.29Z"/><path class="cls-1" d="M700.64,92.33v1.3a5.75,5.75,0,0,1-6,6c-9.21,0-10.58-13-10.58-22.54v-.79c0-2.81,1.29-6.34,3.81-6.34,4.11,0,5,3.39,8.07,3.39h.86c1.66,0,1.3-1.73,2.95-1.73s-.43,3.38-.72,4.82a17,17,0,0,0-.36,5.19C698.77,85.71,700.64,87.87,700.64,92.33Z"/><path class="cls-1" d="M687,127.25v2.09c0,4.83-2,6.34-6.77,6.34h-.43c-3,0-6.34-3.17-6.34-6.77v-4.68l-.14.07c0-4.25,2.3-8.85,3.67-12.09s5.9-8.21,6.12-9.15h2.16c.79,3.31.29,5.91.79,7.71.72,2.73-.79,4.82-.79,8C685.23,122.57,687,123.44,687,127.25Z"/><path class="cls-1" d="M684.65,226.75l-1.51,4a5.85,5.85,0,0,0-3.17-.93,4,4,0,0,0-2.52.86,4.67,4.67,0,0,0-1.58,2.38,15.9,15.9,0,0,0-.72,5v13.25H670.9V226h3.89v3.82a10.24,10.24,0,0,1,2.74-3.53,4.68,4.68,0,0,1,2.73-.86A8.25,8.25,0,0,1,684.65,226.75Z"/><path class="cls-1" d="M663.13,238.63v1.16H644.26a9.62,9.62,0,0,0,2.38,6.4,7.26,7.26,0,0,0,9.29,1,8.35,8.35,0,0,0,2.66-4l-.14-.14,4.46.57a11,11,0,0,1-3.89,6.05,13.19,13.19,0,0,1-16-1.22c-2.16-2.31-3.24-5.47-3.24-9.58s1.08-7.56,3.31-9.93a11.12,11.12,0,0,1,8.57-3.53,10.83,10.83,0,0,1,8.28,3.45Q663.13,232.38,663.13,238.63Zm-18.79-2.44h14.11a8.81,8.81,0,0,0-1.59-4.76,6.57,6.57,0,0,0-5.32-2.44,6.94,6.94,0,0,0-5,1.94A7.67,7.67,0,0,0,644.34,236.19Z"/><path class="cls-1" d="M661.76,171.32c.14,6.4-4.9,7.2-12.31,7.2-18,0-20.23-4.4-29-13.47-4.24-4.39-5.54-7.2-9-12.24-.79-1.08-1.58-1.8-2.37-2.73s-1.3-2.16-2.23-3.24c-2.31-2.67-2-3.68-5.26-5.84-5.25-3.45-7.92,4-10.29,7.92-3.17,5.26-4.4,8.64-8.57,13.11-4.47,4.75-6,5.83-11.67,9.5-2.37,1.51-11.3,7.56-14.68,7.13l-5.55-.94-.43-2.52c2.52-.64,12.31-7.34,14.54-9.21,4.83-4,8.14-7.2,11.67-12.53,3.24-4.9,7-9,9.72-14.47,1.08-2.23,6.48-15.62,6.48-17.71v-1.73c0-1-.29-1.3-1.3-1.3h-1.29c-.29,0-14.33,6.63-16.42,7.42-3.31,1.37-5.62,2-9.5,1.51-2.31-.29-6-3.74-6-6.33v-1.73c0-1.8.58-.22,1.3-2.23l1.58.5.5-1.22,3.82-.51c5.54-3.67,28.44-6.33,31.18-12.17,2.66-5.61,2.37-11.3,3.24-18.43.36-2.88.79-6.33.07-9.28-.87-3.46-3.82-4-3.82-7.2V66.85a4.45,4.45,0,0,1,4.68-4.25c7.13,0,13.82,6.34,12.31,14.4C612,83.41,609,93,609,100a1.66,1.66,0,0,0,1.73,1.72l.43.15,13.18-1.8c2.45-.43,5.4,1.51,6.34,3,0,4.61-.51,6-4.25,7.63-2.38,1-7.42,1.3-10.66,1.3l.15-.07c-3.89,0-8.14.79-9.94,2.8-.94,1-3.24,7.35-3.24,8.64v2.52c0,2.81,10.08,11,12.24,13.68,1.66,2.16,4.18,4.75,6.12,7.06a47.42,47.42,0,0,0,6.41,6.77,155.84,155.84,0,0,0,15.84,10.08C649,166.71,656,168.29,661.76,171.32Z"/><path class="cls-1" d="M634.54,226,625,251.31h-4l.07-.08-9.65-25.34h4.54l5.47,15.19c.57,1.66,1.15,3.31,1.58,5.11.36-1.36.94-3,1.59-4.82L630.15,226Z"/><rect class="cls-1" x="600.42" y="225.89" width="4.32" height="25.34"/><rect class="cls-1" x="600.42" y="216.24" width="4.32" height="4.97"/><path class="cls-1" d="M591.13,235.61v15.55h-4.32V235.75a10.76,10.76,0,0,0-.5-3.88,4.2,4.2,0,0,0-1.8-2.09,5.89,5.89,0,0,0-3-.79,7.16,7.16,0,0,0-4.75,1.72c-1.3,1.16-2,3.39-2,6.63v13.82h-4.17V225.89h3.89v3.6a9,9,0,0,1,8.06-4.18,11,11,0,0,1,4.18.8,7,7,0,0,1,2.88,2.16,8.42,8.42,0,0,1,1.36,3.16A26.06,26.06,0,0,1,591.13,235.61Z"/><polygon class="cls-1" points="570.54 251.16 570.54 251.23 570.39 251.16 570.54 251.16"/><path class="cls-1" d="M560.67,216.31v20.24a23.88,23.88,0,0,1-1.22,8.35,10.06,10.06,0,0,1-4.32,5,15.35,15.35,0,0,1-8.14,1.94,16.65,16.65,0,0,1-8.06-1.73,9.48,9.48,0,0,1-4.46-4.89,23.75,23.75,0,0,1-1.37-8.79V216.24h4.61V236.4a19.41,19.41,0,0,0,.86,6.7,6.47,6.47,0,0,0,2.88,3.31,9.87,9.87,0,0,0,5,1.15c3.38,0,5.83-.79,7.27-2.3s2.16-4.54,2.16-8.86V216.24l.15.07Z"/><path class="cls-1" d="M534.76,123.8v1.29c0,8.64-21.1,3-23.76,7.71-1.44,2.59-1.88,9.5-2.88,12.88-1.37,4.47-.94,8.72,2.95,11.31l-.51,1.65c.72.51.87.08.87,1.3v.86c0,4-8.64,9.15-11,12.75a80.23,80.23,0,0,1-5,6.91c-2.44,2.66-4.68,2.45-8.64,2.45-1-1.59-8.06-7.2-10.58-7.2-4,0-4.32,1.51-8.85.79-2.38-.43-7.2-2.09-8.14-1.66-1.66-2.44-2.3-.72-4-4.89-.58-1.3-1.08-6.55-1.08-8.28,0-3.39,2.73-11.88-.87-11.88s-5.32,2.52-8.49,2.52c-5,0-5.83-4-6.77,2.09-.5,3.31-.36,7.48-.58,10a31.18,31.18,0,0,1-2.23,9.22c-.79,1.8-3.89,5.4-5.69,5.76-13.53,2.66-16.05-16-16.05-27.94l.14-.43-.14-3.38v-2.52c0-6.48,1-17.64,3.53-24.12,1.65-4.39,8.28-15.41,13.89-15.41h.43c3.68,0,2.38,2.59,3.39,4.68a78.9,78.9,0,0,0-7.2,23.83,105.64,105.64,0,0,0-.79,14c0,3-.29,4,.28,6.91.36,1.66,1.95,5,3.1,5,4.75,0,6.05-24.69,11.45-27.57l1.29.43c-.21,2.66-1.29,5-1.29,7.63v1.73c0,1.37.79,1.22,1.73,1.73,3-.72,4.53-.87,6.91-2.45.86-.58,4.61-1.22,6.26-2.23,1.95-1.15,5-10.59,5.91-13.25a70.39,70.39,0,0,1,5.9-12.74c1.08-1.73,6.84-10.8,6.84-12.24,0-.51-.94-1.3-1.73-1.3h-.86c-4.18,0-5.47,6.34-11.45,6.34-4.25,0-9.79-4.11-9.79-8.07V96.73c0-6.48,5.4-18.07,7.85-22.75,1.8-3.39,9.93-17.21,13.39-17.21,4,0,4.75,2.66,6.33,3.81-.5,2.16.22,3.6-1,6.63a49.77,49.77,0,0,1-2.88,6c-1.23,2-5.84,9.21-5.84,11.51l-.21-.07c0,1,.14.51.43,1.66l.86.5c5.12-1.22,9.58-4.46,13.61-6.84,3-1.72,9.58-7.63,12.74-7.63,2.31,0,5.91,2.09,6.63,3.6,1.8,3.89.65,4.9-.94,7.63-1.08,1.8-8.21,11.45-8.21,12.6v.87c0,2.8,7.85-1.16,12.24,2.23,3.17,2.45,6.41,5.69,6,11.37l-.36,8.43,2.09,1.73a1.74,1.74,0,0,1,1.29-.44h.87c3,0,5.18-1.29,8.49-1.29h3C529.64,119.12,534.76,121.85,534.76,123.8ZM503,117v-2.52c0-3.17-1-4.68-4.24-4.68h-.44c-.93,0-7.12,2.3-8.64,2.81-1.8.64-8.35,1.8-8.35,3.52v.08c0,2.52,5,3.09,6.63,4.82,1.15,1.22,5,5.33,6.55,5.33C500.2,126.32,503,123.94,503,117Zm-1.58,19.87v-2.09c0-1.44-1.15-1.65-2.09-2.16-3.38,1.66-7.63,1.51-11.09,4.25-3.95,3.17,2.52,6.69,3.68,8.28,2.37,3.38,4.32,6.84-.29,9.65-2.67,1.65-6.84,5-10.66,5.11l.15-.07c.21-2.81,2.52-3.46,2.52-5.12v-1.29c0-1.37-4-3.24-4.83-4.47-1.8-2.52-.21-4.6-.21-7.84,0-.58-.58-.87-1.3-.87h-.86c-9.07,0-8.07,15.84-8,22.83l2,2.16,4.68.5h2.52c2,0,8.5-2,10.73-2.45,3.6-.72,6.84-2.3,8.57-5C498.18,156.27,501.42,139.35,501.42,136.83Zm-12,37.08v-1.73l-2.52.07h-.44c-1.65,0,0-.65-2.51-.86.35,1.2,2.72,2.48,4.17,2.52h1.3Zm-8.93-44.64a3.58,3.58,0,0,0-3.38-3.38c-.65,0-2.09,2.59-2.09,3.81l-.07-.07v1.73c1.15.29.86.43,1.72.43C478.09,131.79,480.47,130.71,480.47,129.27Z"/><rect class="cls-1" x="508.19" y="225.89" width="4.32" height="25.34"/><rect class="cls-1" x="508.19" y="216.24" width="4.32" height="4.97"/><path class="cls-1" d="M500.12,251.45h-4.46a9.64,9.64,0,0,1-.86-3.1v-.28a16,16,0,0,1-4.61,2.88,12.82,12.82,0,0,1-4.75.86c-2.81,0-4.9-.65-6.41-2a6.64,6.64,0,0,1-2.23-5.18,6.8,6.8,0,0,1,.86-3.38,6.69,6.69,0,0,1,2.23-2.45,11.14,11.14,0,0,1,3.1-1.44,33.53,33.53,0,0,1,3.81-.65,39.31,39.31,0,0,0,7.64-1.51V234.1a4.79,4.79,0,0,0-1.23-3.67c-1.08-1-2.73-1.44-4.89-1.44a7.43,7.43,0,0,0-4.47,1.08,6.94,6.94,0,0,0-2.16,3.74l-4.17-.58a10,10,0,0,1,1.87-4.32,8.27,8.27,0,0,1,3.82-2.52,17.7,17.7,0,0,1,5.75-.86,15.38,15.38,0,0,1,5.26.79,6.16,6.16,0,0,1,2.95,1.95,7,7,0,0,1,1.37,3,23.91,23.91,0,0,1,.22,4v5.69a54.1,54.1,0,0,0,.28,7.56A11.09,11.09,0,0,0,500.12,251.45Zm-5.68-11.38v-1.58a34.76,34.76,0,0,1-7,1.66,12.22,12.22,0,0,0-3.74.86,4.06,4.06,0,0,0-1.73,1.37,3.44,3.44,0,0,0-.57,2,3.72,3.72,0,0,0,1.29,2.88,5.48,5.48,0,0,0,3.82,1.16,8.84,8.84,0,0,0,4.39-1.08,6.57,6.57,0,0,0,2.81-3A10.64,10.64,0,0,0,494.44,240.07Z"/><path class="cls-1" d="M469,235.11v16.05H464.7V235.11c0-2.16-.43-3.68-1.37-4.68a5,5,0,0,0-4-1.44,7.26,7.26,0,0,0-3.6,1,5.46,5.46,0,0,0-1.14.85l-1.88-2.07a9.66,9.66,0,0,1,7.56-3.46,10.48,10.48,0,0,1,4.9,1.08,6.36,6.36,0,0,1,2.95,3A14.59,14.59,0,0,1,469,235.11Z"/><path class="cls-1" d="M452.75,228.77l1.88,2.07a5.15,5.15,0,0,0-1.23,1.82,11.69,11.69,0,0,0-.72,4.68v13.82h-4.25V216.24h4.32Z"/><path class="cls-1" d="M439.21,225.89v21.89c0,4-.43,6.77-1.22,8.35a8.65,8.65,0,0,1-3.82,3.89,13.39,13.39,0,0,1-6.4,1.44,12.16,12.16,0,0,1-7.35-2c-1.87-1.37-2.73-3.38-2.66-6.12v-.07l4.18.65a3.8,3.8,0,0,0,1.44,2.81,7.22,7.22,0,0,0,4.39,1.22,7.64,7.64,0,0,0,4.6-1.22,5.89,5.89,0,0,0,2.16-3.32,24.5,24.5,0,0,0,.29-5.54,8.68,8.68,0,0,1-7,3.31,9.45,9.45,0,0,1-8.06-3.74,14.73,14.73,0,0,1-2.88-9,16.92,16.92,0,0,1,1.29-6.7A10.94,10.94,0,0,1,422,227a10.44,10.44,0,0,1,5.83-1.66,9.18,9.18,0,0,1,7.41,3.6v-3Zm-6,19.44c1.37-1.51,2-3.89,2-7.13,0-3.09-.64-5.4-2.08-7a6.34,6.34,0,0,0-5-2.38,6.45,6.45,0,0,0-4.9,2.31c-1.36,1.51-2,3.81-2,6.91,0,3.31.65,5.76,2,7.27a6.29,6.29,0,0,0,5,2.3A6.51,6.51,0,0,0,433.24,245.33Z"/><path class="cls-1" d="M439.79,89c0,4.32-2.88,6.77-7.2,6.77-4.68,0-11-5.9-11-10.58v-.87h-.08c0-1.73,3.82-3.38,6-3.38h.43C433.17,81,439.79,83.55,439.79,89Z"/><path class="cls-1" d="M409.26,235.54v15.55h-4.32V235.68a10.82,10.82,0,0,0-.5-3.89,4.22,4.22,0,0,0-1.8-2.08,5.83,5.83,0,0,0-3-.8,7.19,7.19,0,0,0-4.76,1.73c-1.29,1.15-2,3.39-2,6.63v13.82h-4.18V225.82h3.89v3.6a9.05,9.05,0,0,1,8.06-4.18,11.12,11.12,0,0,1,4.18.79,7.11,7.11,0,0,1,2.88,2.16,8.55,8.55,0,0,1,1.37,3.17A27.62,27.62,0,0,1,409.26,235.54Z"/><polygon class="cls-1" points="388.68 251.09 388.68 251.16 388.54 251.09 388.68 251.09"/><path class="cls-1" d="M385.65,145.83a8.58,8.58,0,0,1-8.5,8.93h-2.52c-6,0-10.87-3-18.28-3-10.08,0-41,6.7-46.3,10.23h-1.73c-2.3,1.51-7.2,2.09-11,2.09H296c-4.46,0-10.22-3.32-10.22-7.2,0-5.76,22.1-8.64,28.29-10.37,9.22-2.59,6.34-1.73,8.5-11.09.93-4.25,1.51-11.09,2.37-15.41,2.16-10.8,3.6-22.17,5.4-33.26,1.3-8.06.22-8.78,8.86-10.65,3.74-.8,10.73,3.38,10.73,8.2v1.3c0,.43-5.69,14.83-6,15.26h.22c0,3.1-.22,7.2,2.52,7.2h.43c5.18,0,19.94-7.92,19.94,2.09,0,1.66-2.95,4.68-4.39,5.4-1.94.94-7.27,1.15-8.42,1.87l-1.23-.93c-.86,2.08-8.28.86-10.72,4.53-2,3.1-1.95,11.09-3.1,11.59l.22,3.39c1.58,2.37,5.61,3.74,9.36,3.67l2.95.14h6.77C365.49,139.85,385.65,139.06,385.65,145.83Z"/><path class="cls-1" d="M380.68,251.38h-4.46a9.79,9.79,0,0,1-.87-3.1V248a15.29,15.29,0,0,1-4.61,2.88,12.59,12.59,0,0,1-4.75.87c-2.8,0-4.89-.65-6.4-2a6.63,6.63,0,0,1-2.24-5.18,6.74,6.74,0,0,1,.87-3.39,6.57,6.57,0,0,1,2.23-2.44,11,11,0,0,1,3.1-1.44,31,31,0,0,1,3.81-.65,39,39,0,0,0,7.63-1.51V234a4.81,4.81,0,0,0-1.22-3.68c-1.08-1-2.74-1.44-4.9-1.44a7.41,7.41,0,0,0-4.46,1.08,6.86,6.86,0,0,0-2.16,3.75l-4.18-.58a9.89,9.89,0,0,1,1.88-4.32,8.28,8.28,0,0,1,3.81-2.52,17.8,17.8,0,0,1,5.76-.86,15.38,15.38,0,0,1,5.26.79,6.25,6.25,0,0,1,2.95,1.94,7.06,7.06,0,0,1,1.37,3,24.26,24.26,0,0,1,.21,4v5.68a51.68,51.68,0,0,0,.29,7.56A11.16,11.16,0,0,0,380.68,251.38ZM375,240v-1.58a34.07,34.07,0,0,1-7,1.65,12.46,12.46,0,0,0-3.74.87,4.06,4.06,0,0,0-1.73,1.37,3.43,3.43,0,0,0-.58,2,3.71,3.71,0,0,0,1.3,2.88,5.5,5.5,0,0,0,3.81,1.15,8.79,8.79,0,0,0,4.39-1.08,6.45,6.45,0,0,0,2.81-2.95A10.64,10.64,0,0,0,375,240Z"/><path class="cls-1" d="M349.58,235v16.06h-4.32V235c0-2.16-.43-3.67-1.37-4.68a5.1,5.1,0,0,0-4-1.44,7.12,7.12,0,0,0-3.6,1,5.46,5.46,0,0,0-1.14.85l-1.88-2.07a9.6,9.6,0,0,1,7.56-3.46,10.44,10.44,0,0,1,4.89,1.08,6.28,6.28,0,0,1,3,3A14.33,14.33,0,0,1,349.58,235Z"/><path class="cls-1" d="M333.31,228.7l1.88,2.07a5.09,5.09,0,0,0-1.24,1.82,11.87,11.87,0,0,0-.72,4.68v13.82H329V216.17h4.32Z"/><path class="cls-1" d="M319.48,225.89l-4.46.36a7.21,7.21,0,0,0-2.45-5c-1.37-1.15-3.38-1.73-6.12-1.73s-4.82.51-6.12,1.51a4.55,4.55,0,0,0-1.94,3.68,3.78,3.78,0,0,0,1.37,3.09c.86.79,3.24,1.66,7,2.52a46.61,46.61,0,0,1,7.7,2.23,11.13,11.13,0,0,1,4.54,3.6,9,9,0,0,1,1.44,5,9.4,9.4,0,0,1-1.59,5.26,10.12,10.12,0,0,1-4.6,3.81,15.66,15.66,0,0,1-6.7,1.37,19.47,19.47,0,0,1-7.92-1.37,11.07,11.07,0,0,1-5-4.17,11.92,11.92,0,0,1-1.94-6.27l.07.15,4.39-.36a9.65,9.65,0,0,0,1.44,4.32,8.19,8.19,0,0,0,3.53,2.73,12.77,12.77,0,0,0,5.33,1,13.37,13.37,0,0,0,4.68-.79,6.08,6.08,0,0,0,3-2.16,5.24,5.24,0,0,0,1-3,4.59,4.59,0,0,0-.94-2.88,7.19,7.19,0,0,0-3.17-2.09c-.93-.36-3-.94-6.19-1.73a35.1,35.1,0,0,1-6.76-2.16,9.78,9.78,0,0,1-3.75-3.24,8.19,8.19,0,0,1-1.22-4.32,9.11,9.11,0,0,1,1.51-5,9.51,9.51,0,0,1,4.39-3.53,16.71,16.71,0,0,1,6.41-1.22,18.2,18.2,0,0,1,6.84,1.22,10.06,10.06,0,0,1,4.53,3.68A10.26,10.26,0,0,1,319.48,225.89Z"/><path class="cls-1" d="M244.25,119.69v68c0,65.66-53.72,119.45-119.45,119.45h-5.11C54,307.18.25,253.47.25,187.73v-68C.25,54,54,.25,119.69.25h5.11C190.46.25,244.25,54,244.25,119.69Zm-3.17,68v-68A116.83,116.83,0,0,0,149.27,6,114.8,114.8,0,0,0,124.8,3.42h-5.11A115.65,115.65,0,0,0,93.14,6.5C41.88,18.6,3.41,64.89,3.41,119.69v68C3.41,251.67,55.76,304,119.69,304h5.11C188.73,304,241.08,251.67,241.08,187.73Z"/><path class="cls-1" d="M237.91,176.21v2l-7.78-.44h-1.51c-1.29,0-10.58,5-11.88,5.91l-.07-3,8.93-4.75c-1-1.37-7.78-5-7.78-6.33l.15-2.81,11,8C231.07,174.7,237.91,174.41,237.91,176.21Z"/><path class="cls-1" d="M236.47,197.38v2.73l-18.14-1.58-.44,5.54h-1.51c-1.87,0-.65-5.32-.43-6.76.36-2.74.22-5.62.79-8.07h2.74l-.51,4,.08,2.16Z"/><polygon class="cls-1" points="233.53 212.93 233.09 215.95 213 210.27 212.94 210.34 213.44 207.75 233.53 212.93"/><path class="cls-1" d="M227.61,225.46v2.59c0,2.59-3.74,6.7-6.33,6.7h-1.87c-1.88,0-.8-2.09-.36-3h3c1.51-1,2.95-2.23,2.95-4.82v-.72c0-1.08-1.51-2.23-2.59-2.23-3.17,0-5.69,6.33-9.29,6.33-2.81,0-5.9-1.8-5.9-4.46v-2.23c0-2.45,2.8-6.34,5.54-6.34h3l-.81,2.45h-2.16c-1.37,0-2.95,2.59-2.95,4.1v1.52a2.14,2.14,0,0,0,1.87,1.87h1.51c1.8,0,5.91-5.91,7.78-5.91h2.23C225,221.35,227.61,223.44,227.61,225.46Z"/><path class="cls-1" d="M220.49,244.32c-.36.58-1.16,2.23-1.88,2.23-1.44,0-5.76-3.31-7.77-3.31-1.66,0-3.46,3.53-4.11,4.83h.08l7.77,4.82c-.21.58-.93,2.23-1.51,2.23-1.44,0-14.11-10-16.7-10.73.43-1.87,5.32-8.92,7.05-8.92h1.51c1.37,0,3,1.29,3.82,2.08,2.38,2.6-.94,2.6,3.17,3.1C212.64,240.72,219.41,243.82,220.49,244.32Zm-13.4-2.95v-.72c0-1.51-1.72-1.94-2.95-2.23-1.37.72-4.1,3.09-4.1,4.82,0,.72,3.67,2.52,4.46,3C205.22,245.11,207.09,243,207.09,241.37Z"/><polygon class="cls-1" points="215.74 217.18 215.74 217.32 215.69 217.32 215.74 217.18"/><path class="cls-1" d="M211.77,118.18v71.06c0,47.09-40.24,85.54-89.49,85.54a91.28,91.28,0,0,1-63.21-25.14c-16.22-15.51-26.28-36.89-26.28-60.4V118.18c0-36.29,23.91-67.46,57.44-79.83a89.57,89.57,0,0,1,9.55-2.95,93.11,93.11,0,0,1,51.55,1.91,90.45,90.45,0,0,1,29.52,16.34,1.74,1.74,0,0,0,1.09.93C200.23,70.27,211.77,93,211.77,118.18Zm-3.16,71.06V118.18c0-45.28-38.81-82.36-86.33-82.36S36,72.9,36,118.18v71.06c0,22.65,9.7,43.24,25.34,58.17a88.16,88.16,0,0,0,61,24.2C169.73,271.61,208.61,234.53,208.61,189.24Z"/><path class="cls-1" d="M205.65,262.39l1.88,2.09-8.79,7.42-13.53-15c.57-.86,7.77-7.77,8.13-7.77.93,0,1.42.9,2.34,1.62l-6.51,6,3.88,4.24,5.55-5.32,1.87,2.09-5.76,5.47,4.18,4.82Z"/><path class="cls-1" d="M207.14,38.44a.68.68,0,0,1,.24.47,2.34,2.34,0,0,1-2.16,1.8h-.36c-2.11,0-6,.11-7.52-1a1.59,1.59,0,0,1-.61-.83l2.3-.36-.43-1.8c.43-.72,1.94-2.23,2.95-2.23h.36c.58,0,1.08.21,1.08.72,0,.93-1.44,1.73-1.87,3.31h3.74a1.66,1.66,0,0,0,1-.43C206.21,37.76,206.81,38.09,207.14,38.44Z"/><path class="cls-1" d="M203.49,47.05a2.45,2.45,0,0,1-1.87,1.51A13.15,13.15,0,0,1,198.31,46l2.59-.22c-1.44-2.23-4.25-3.17-7-3.89a10.84,10.84,0,0,1-1.71-.73c-2.19-1.08-5.35-2.94-5.35-2.94-1.73,0-1.8,1.87-3.31,1.87h-.36a1.47,1.47,0,0,1-1.51-1.51l.07-.07c0-1.58,4.54-3,5.9-3h.72a1.31,1.31,0,0,1,1.08.36l-1.44,1.87a54.64,54.64,0,0,1,8.91,3C200.41,42.34,203.49,44.48,203.49,47.05Z"/><path class="cls-1" d="M198.67,34.52v.72c-4.68,0-2.38,3-7.06,3V36.82c0-1.51,2.45-4.46,3.75-4.46h.36c.79,0,1.08.22,1.08,1.08v1.08Z"/><path class="cls-1" d="M196.29,100c.08,19.65-.28,38.16-.28,57.6,0,5,.28,24.26-.51,28.44s-.43,9.07-1.22,13.24a79.26,79.26,0,0,1-3.31,10.8c-7.71,22.83-35.64,48.82-66.17,48.82h-6.69c-25,0-42.56-14.55-54.07-28.3C50.14,214,48,194.14,48,164.33V144l-.07-.08.93-46L74.19,111c.07,14.4-.29,27.65-.29,42.19,0,10.44-1.73,32.62-.22,41.4,1.87,10.8,8.07,22,15.27,27.36,7,5.18,18,12.82,29.8,12.82h7.78c11.88,0,27.29-9.87,32.47-16.85a85,85,0,0,0,9.58-15.34c3.31-6.62,4-10.87,4-20.52V168.72L171,114.58Z"/><path class="cls-1" d="M195.72,250.73v.07l0,0Z"/><path class="cls-1" d="M195.57,45.75v.36c0,1.66-3.45,1.8-5.18,2.95,1,1.44,4.82,4.11,4.82,5.91,0,.5-.5.72-1.08.72-3,0-3.88-4.11-5.18-4.11-.65,0-2.45,2.24-6.55,2.81v.22a1.17,1.17,0,0,1-.46,0c-.36-.32-.72-.62-1.09-.93a4.39,4.39,0,0,1-.54-2.86l.43-.14c.08,1.08-.07,1.51,1.08,1.51h1.88A3.35,3.35,0,0,0,187,49.57c-2.81-1.37-7.35-2.31-7.42-6.34,3.24.07,6.19,4.9,9.29,5.19V46.9c0-1.72,2.3-1.15,4.17-1.36L191.47,45c-.22-1-.36-.72-.36-1.51s-.14.22.36-.72C192.19,42.94,195.57,44.67,195.57,45.75Z"/><path class="cls-1" d="M181.1,260.3l3.68,21.53c-.29.22-.87.72-1.08.72-.8,0-16.28-12.53-17.07-13.75a3.68,3.68,0,0,1,2.59-1.51l-.07.07c.29,0,10.3,9,12.24,10-.36-4.54-2.95-10.95-2.95-15.55C178.44,261.1,180.38,260.45,181.1,260.3Z"/><polygon class="cls-1" points="160.59 270.31 171.03 288.02 168.66 289.03 168.66 289.1 158.06 271.39 160.59 270.31"/><path class="cls-1" d="M170.38,64.54l-.87,34.13.15,5.9L161.88,109v78.33c0,22-17.71,38.23-39.67,38.23-11.59,0-21.24-4.68-27-10.51a90.23,90.23,0,0,1-8.71-10.22c-1.51-2-2.23-3.75-3.89-5.4-1.8-1.8-5.26-2.09-5.26-4v-.72c0-2.23,7-4.83,10-4.83H90c5.62,0,7.56,3,11.88,3,5.76,0,8.5-9.29,8.14-15.2l-2.45-43.41.22-7.42h-.07C107.67,88.88,135.31,67.42,170.38,64.54Zm-84.53,132c.79,0,2.59-1.23,2.59-1.87,0-.8-1.94-1.08-3-1.08h-.36a1.47,1.47,0,0,0-1.51,1.51c0,1.15,1.08,1.51,2.23,1.51Z"/><path class="cls-1" d="M152.81,273.55l6.33,19.23-2.59.79-13.82-11.45,5,14.54-3,.65L138.41,278a9.88,9.88,0,0,1,2.23-.72c1.87,0,11.16,9.64,13.75,10.36L150.07,274Z"/><path class="cls-1" d="M153.46,35.53a7,7,0,0,1-1.47-.16c-4.61-1-7.76-6.63-7.82-11-3.75,1-3.46,6.33-11.52,6.33,1.22-1.8,9.86-5.83,11.16-10.72h-5.19a1.48,1.48,0,0,1-1.51-1.51c0-1,4.54-.87,5.26-1,3-.43,3.6,1.08,3.6-2.31,2.95-1.94,1.87-3.38,1.87-7V8c0-.5.5-.72,1.08-.72H149a2.56,2.56,0,0,1,1.42,1.87v1.08c0,1.44-2,4.24-2.23,6.69l2.95-.43c.65.5,1.51.86,1.51,1.94,0,.65-1.08,1.23-1.51,1.52l-2.95-.44-.36.08c-1,0-2.16,1.58-2.59,2.23,1.51,2.23,2.23,5.54,3.67,7.48C149.93,30.63,153.31,34.16,153.46,35.53Z"/><path class="cls-1" d="M135.1,278.74v14.47c0,3.24-3.75,6.33-7.06,6.33l-.07-.07h-1.08c-3,0-6.7-2.66-6.7-5.54V278.74h2.6v14.83c0,.93,1.29,1.65,1.87,2.52l4.1.43c2.3.29,3.74-2.59,3.74-4.82v-13Z"/><path class="cls-1" d="M119.19,85c-3.39,2.23-8.86,10.22-10.88,14.33a46.79,46.79,0,0,0-5.11,19.8c-.57,16.13-1.44,31.89-1.44,48.6v4.82c0,1.22,2.23,1.73,2.23,5.18v.36c0,2.67-1,10-3.31,10-1.73,0-5.11-2.45-7-3-2.45-.79-6-.65-9.36-.65a5.34,5.34,0,0,1-2.59-4.1h-.08V60.87c3.68.29,18.22,7.49,21.39,9.43C109.18,74,115.87,78.73,119.19,85Z"/><path class="cls-1" d="M108.82,19.76c.57,0,1.08.22,1.08.72,0,2.52-5.19.43-5.19,3.31v4.47c0,1.65,1.52.57,1.52,2.23v.36c0,1.65-.8,1.87-1.52,2.73h.22a18.91,18.91,0,0,1-5.17,1.75,8.44,8.44,0,0,1-3.4.34l-1.8-5.18h-.65l-.43,1.08c-3.09-.72-1.51,2-1.51,5.54a5.35,5.35,0,0,1-1.75,1.21.79.79,0,0,1-.84-.06c-1.08-1.58-4.47-7.48-4.47-9.64V26.74c0-1.51.72-4.82,2.24-4.82a1.74,1.74,0,0,1,1.51,1.51c0,3.67-.65,8.35,1.29,10.73l.94-8.86h.72v4.54l2.23-.79a50.48,50.48,0,0,1,.36-5.55c.22-2.3,1.44-2.8,1.44-4.46V18l-.36-.21-1.15,2.16-3-.44a5,5,0,0,1-.36-1.87V15.37c0-4.1.5-4.46,1.87-7.06L93.05,8l.36-.36h.72l.36.36.36.36-.36,6,.72-.43.72-.36v-.72l.36-.36c.72-1.08,1.51-2.23,3.31-2.23.58,0,1.15.21,1.15.72l-.43,5.18h1.08c1.87,0,2.45,3.31,2.59,5.18,2.6-.07,3.6-1.51,4.47-1.51Zm-6,10.73L102.77,24l-2.16.86-.36.36-.36.36-.07.07v1.08l.36.72.72.36.36.36.36.36v1.52l-.36.36-.79.43-.08-.43-.21-1.08L99.46,29l-.36-.36-.36-1.88H98l-.36.36v3.75l.72,2.23C99.75,32.79,102.84,31.93,102.84,30.49Zm-.36-8.64c0-.94-.29-2.95-1.08-2.95a23.48,23.48,0,0,0-3.66,1.83v0l-.07.07.08,0,.35,1.48h1.08c1.3,0,.58.72,1.87.72h.36C102.19,22.93,102.48,22.71,102.48,21.85ZM97.3,25.52c1,0,2.16-.16,2.16-1.08,0-.5-.51-.72-1.08-.72-1.13,0-1.08.62-1.08,1.8h-.07l.07.07Z"/><path class="cls-1" d="M97.73,20.7v0l-.08,0Z"/><path class="cls-1" d="M97.3,25.52v.07l-.07-.07Z"/><polygon class="cls-1" points="94.42 275.78 94.5 275.86 94.41 275.84 94.42 275.78"/><polygon class="cls-1" points="94.41 275.84 87.16 295.37 84.56 294.65 91.69 275.35 94.41 275.84"/><path class="cls-1" d="M88.51,17c0,.51-.5.72-1.08.72H85.92a2.94,2.94,0,0,1-2.23-2.23C83.69,13.21,88.51,15.23,88.51,17Z"/><path class="cls-1" d="M82.61,270.31l-3.1,21.53-2.73-1.51.43-4.11v-1.08c0-1.22-5.54-4.1-6.7-4.89L66.12,284l-2.59-1.08c.22-.79,16.2-14.11,16.7-14.11C81,268.8,82.54,269.74,82.61,270.31Zm-4.75,11.45,1.58-8.5-6.77,5.4Z"/><polygon class="cls-1" points="69.88 262.54 55.62 277.73 53.81 276.14 60.52 268.8 53.74 262.68 46.91 269.81 45.33 268.01 59.37 252.89 60.95 254.69 55.62 260.52 62.38 266.57 67.92 260.88 69.88 262.54"/><path class="cls-1" d="M68.79,39.7c.79,0,1.08.22,1.08,1.08,0,2.81-3.17,2.24-4.9,4s-2.52,3.32-3.89,4.68c-2.66,2.67-5,8.72-8.64,8.79.08-4,3.32-5.91,4.83-8.14C55.76,47.7,46.54,37.69,46.54,35.6c0-.36,1.44-1.87,2.23-1.87h1.08c1.51,0,2.95,5.11,4.83,6.33.43-1.87,3.67-5.68,4.68-3.6.72,1.52-3.17,4.25-3.17,5.84A22.62,22.62,0,0,0,59.5,46c1.66-2.45,5-6.34,8.93-6.34Z"/><path class="cls-1" d="M52.8,248.5v1.08c0,2.16-.86,4.39-2.59,4.82-.29-1.22-1.08-1.51-1.08-2.59,0-.72,1.08-.58,1.08-1.87,0-2.88-2.16-5.55-4.82-5.55H44.31c-3.1,0-8.57,4.47-8.57,7.42l.07.22v.72c0,1.87,2.45,4.6,3.39,6L43.3,256l-1.94-3,2.37-1.36L47,256.56l-8.71,6.05c-1.44-2.67-5.18-6.62-5.18-10v-1.87c0-3.6,7-8.93,10.37-8.93h2.59C48.92,241.8,52.8,245.76,52.8,248.5Z"/><path class="cls-1" d="M41,230.21c.14,2,.72,1.08.72,1.87,0,1.37-15,9.36-17.07,10.73a2.6,2.6,0,0,1-1.51-2.23c0-.58,7.34-13.9,8.06-15.77l-13.1,7.78L17,230.07l17.71-10.16c.07.22,1.08,2.24,1.08,2.24,0,1.22-7.13,12.88-7.78,15.55l.08-.07Z"/><path class="cls-1" d="M31.28,210.41,14.86,225.53c-.22-1-.72-1.51-.72-2.23,0-1.44,4.1-4,4.1-4.83,0-1.29-2.52-5.25-2.59-7.41H10.47c-1.3,0-1.73-1.73-1.87-3H29.76l-.07-.08C30.92,208,30.92,209.19,31.28,210.41Zm-10.95,6.41,6.55-5.76H18.32Z"/><polygon class="cls-1" points="27.89 196.52 27.89 199.11 7.09 199.9 7.09 197.31 12.63 197.38 16.73 196.95 16.8 194.36 16.38 188.09 11.2 188.02 6.38 188.45 6.38 185.5 10.12 185.64 27.54 184.78 27.54 187.73 18.91 187.73 18.89 187.66 18.89 187.73 18.91 187.73 19.77 196.52 27.89 196.52"/><path class="cls-1" d="M27.53,169.88v3.31c0,2.52-2.81,5-5.18,5.18v-3c1.58-.14,2.95-1.22,2.95-2.59V170.6c0-.8-1.51-3-2.59-3H21.63c-3.39,0-2.74,10.73-8.14,10.73H11.62c-2.81,0-4.82-3-4.82-5.9,0-4.54,1.94-8.07,6.33-8.14v3A3.56,3.56,0,0,0,9.39,171v1.44c0,1.8,1,3.31,2.95,3.31,5,0,2.52-10.73,8.93-10.73h1.08A5.15,5.15,0,0,1,27.53,169.88Z"/><polygon class="cls-1" points="18.89 187.66 18.91 187.73 18.89 187.73 18.89 187.66"/></g></svg>